<?xml version="1.0" standalone="no"?><!DOCTYPE svg PUBLIC "-//W3C//DTD SVG 1.1//EN" "http://www.w3.org/Graphics/SVG/1.1/DTD/svg11.dtd"><svg t="1608198861786" class="icon" viewBox="0 0 1024 1024" version="1.1" xmlns="http://www.w3.org/2000/svg" p-id="6705" xmlns:xlink="http://www.w3.org/1999/xlink" width="32" height="32"><defs><style type="text/css"></style></defs><path d="M871.96254815 404.13487407c0-216.99697778-157.52912592-374.40474075-374.40474074-374.40474074-206.4384 0-374.40474075 167.96634075-374.40474074 374.40474074 0 152.43188148 207.04521482 410.5709037 318.33505185 549.28877037l8.25268148 10.19448889c11.65084445 14.56355555 29.12711111 22.9376 47.93837037 22.9376 18.6898963 0 36.16616297-8.37404445 47.93837038-22.9376l8.25268147-10.19448889c111.04711111-138.71786667 318.09232592-396.85688889 318.09232593-549.28877037z m-376.34654815 108.49848889c-76.3373037 0-138.35377778-62.01647408-138.35377778-138.35377777s62.01647408-138.35377778 138.35377778-138.35377778 138.35377778 62.01647408 138.35377778 138.35377778-62.01647408 138.35377778-138.35377778 138.35377777z" fill="#d81e06" p-id="6706"></path><path d="M497.55780741-2.91650371c-224.40011852 0-407.05137778 182.5298963-407.05137778 407.05137778 0 163.84 211.77837037 427.80444445 325.49546667 569.67774815l8.13131852 10.19448889c17.96171852 22.33078518 44.66157037 35.19525925 73.30322963 35.19525925s55.34151111-12.86447408 73.30322963-35.19525925l8.25268147-10.19448889C692.83081482 831.93931852 904.48782222 567.97487407 904.48782222 404.13487407c0-235.80823703-171.12177778-407.05137778-406.93001481-407.05137778z m0 989.47223704c-18.6898963 0-36.16616297-8.37404445-47.93837038-22.9376l-8.25268148-10.19448889c-111.28983703-138.71786667-318.33505185-396.85688889-318.33505185-549.28877037 0-206.4384 167.96634075-374.40474075 374.40474075-374.40474074 216.99697778 0 374.40474075 157.52912592 374.40474073 374.40474074 0 152.43188148-207.04521482 410.5709037-318.33505185 549.28877037l-8.25268148 10.19448889c-11.52948148 14.56355555-29.00574815 22.9376-47.69564444 22.9376z" fill="#ffffff" p-id="6707"></path><path d="M495.616 374.27958519m-105.8285037 0a105.8285037 105.8285037 0 1 0 211.6570074 0 105.8285037 105.8285037 0 1 0-211.6570074 0Z" fill="#ffffff" p-id="6708"></path><path d="M633.96977778 374.27958519c0-76.3373037-62.01647408-138.35377778-138.35377778-138.35377778s-138.35377778 62.01647408-138.35377778 138.35377778 62.01647408 138.35377778 138.35377778 138.35377777 138.35377778-62.01647408 138.35377778-138.35377777z m-244.18228148 0c0-58.37558518 47.45291852-105.8285037 105.8285037-105.82850371s105.8285037 47.45291852 105.8285037 105.82850371-47.45291852 105.8285037-105.8285037 105.8285037-105.8285037-47.45291852-105.8285037-105.8285037z" fill="#ffffff" p-id="6709"></path></svg>