<?xml version="1.0" encoding="utf-8"?>
<svg version="1.1" xmlns:xlink="http://www.w3.org/1999/xlink" width="18px" height="19px" xmlns="http://www.w3.org/2000/svg">
  <g transform="matrix(1 0 0 1 -1960 -121 )">
    <path d="M 0.1953125 16.8671875  L 2.890625 16.8671875  L 2.890625 9.5  C 2.890625 6.1258955078125  5.6258955078125 3.390625  9 3.390625  C 12.3741044921875 3.390625  15.109375 6.1258955078125  15.109375 9.5  L 15.109375 16.8671875  L 17.8046875 16.8671875  C 17.9039261659852 16.8671875  17.984375 16.9476363340148  17.984375 17.046875  L 17.984375 18.3046875  C 17.984375 18.4039261659852  17.9039261659852 18.484375  17.8046875 18.484375  L 0.1953125 18.484375  C 0.0960738340147795 18.484375  0.015625 18.4039261659852  0.015625 18.3046875  L 0.015625 17.046875  C 0.015625 16.9476363340148  0.0960738340147795 16.8671875  0.1953125 16.8671875  Z M 4.5078125 9.5  L 4.5078125 16.8671875  L 13.4921875 16.8671875  L 13.4921875 9.5  C 13.4921875 7.0190322265625  11.4809677734375 5.0078125  9 5.0078125  C 6.5190322265625 5.0078125  4.5078125 7.0190322265625  4.5078125 9.5  Z M 8.3935546875 0.6953125  C 8.3935546875 0.59607383401478  8.47400352151478 0.515625  8.5732421875 0.515625  L 9.4267578125 0.515625  C 9.52599647848522 0.515625  9.6064453125 0.59607383401478  9.6064453125 0.6953125  L 9.6064453125 2.4921875  C 9.6064453125 2.59142616598522  9.52599647848522 2.671875  9.4267578125 2.671875  L 8.5732421875 2.671875  C 8.47400352151478 2.671875  8.3935546875 2.59142616598522  8.3935546875 2.4921875  L 8.3935546875 0.6953125  Z M 0.0814355468750003 5.9025888671875  L 0.508193359375 5.163421875  C 0.540289316881454 5.10781844853525  0.599613454232209 5.07356406969867  0.663815413103233 5.07356406969867  C 0.695369783652982 5.07356406969867  0.726367789562259 5.08187340260505  0.753691406250001 5.09765625  L 2.309830078125 5.99609375  C 2.39576888809624 6.04571452150152  2.42521269327085 6.155605881798  2.375595703125 6.241546875  L 1.948837890625 6.980736328125  C 1.89920942167624 7.0666669865231  1.78931987744444 7.09610024933116  1.703384765625 7.0464794921875  L 0.147246093750001 6.1480419921875  C 0.0613072837787625 6.09842122068598  0.0318634786041541 5.9885298603895  0.0814804687499997 5.9025888671875  Z M 17.491806640625 5.163421875  L 17.918564453125 5.902611328125  C 17.9681623840452 5.98855319630921  17.9387098528693 6.09842953914259  17.8527763671875 6.1480419921875  L 16.2966376953125 7.0464794921875  C 16.2106967021105 7.09609648233334  16.100805341814 7.06665267715874  16.0511845703125 6.9807138671875  L 15.6244267578125 6.241546875  C 15.5748097676667 6.155605881798  15.6042535728413 6.04571452150152  15.6901923828125 5.99609375  L 17.2463310546875 5.09765625  C 17.3322720478895 5.04803925985416  17.442163408186 5.07748306502876  17.4917841796875 5.163421875  Z M 3.606185546875 2.0654296875  L 4.3453525390625 1.638671875  C 4.4312935322645 1.58905488485415  4.54118489256098 1.61849869002876  4.5908056640625 1.7044375  L 5.4892431640625 3.260576171875  C 5.53886015420835 3.346517165077  5.50941634903374 3.45640852537348  5.4234775390625 3.506029296875  L 4.684310546875 3.932787109375  C 4.598369553673 3.98240409952085  4.48847819337652 3.95296029434624  4.438857421875 3.867021484375  L 3.540419921875 2.3108828125  C 3.52465319809953 2.28356951735534  3.51635281161365 2.25258760457259  3.51635281161365 2.22105023514724  C 3.51635281161365 2.15684935258261  3.55060605161552 2.09752603914855  3.6062080078125 2.0654296875  Z M 13.646224609375 1.638671875  L 14.3853916015625 2.0654296875  C 14.4713304115337 2.11505045900152  14.5007742167083 2.224941819298  14.4511572265625 2.3108828125  L 13.5527197265625 3.867021484375  C 13.503098955061 3.95296029434624  13.3932075947645 3.98240409952085  13.3072666015625 3.932787109375  L 12.568099609375 3.506029296875  C 12.4821607994038 3.45640852537348  12.4527169942292 3.34651716507699  12.502333984375 3.260576171875  L 13.400771484375 1.7044375  C 13.4328689113732 1.64883955589693  13.4921899764392 1.61458942348052  13.5563879219545 1.61458942348052  C 13.5879356959169 1.61458942348052  13.6189274576691 1.6228952845257  13.6462470703125 1.638671875  Z M 9.8984375 14.7109375  C 9.8984375 15.2071220703125  9.4961845703125 15.609375  9 15.609375  C 8.5038154296875 15.609375  8.1015625 15.2071220703125  8.1015625 14.7109375  C 8.1015625 14.2147529296875  8.5038154296875 13.8125  9 13.8125  C 9.4961845703125 13.8125  9.8984375 14.2147529296875  9.8984375 14.7109375  Z M 8.28125 7.5234375  C 8.28125 7.42419883401478  8.36169883401478 7.34375  8.4609375 7.34375  L 9.5390625 7.34375  C 9.63830116598522 7.34375  9.71875 7.42419883401478  9.71875 7.5234375  L 9.71875 12.9140625  C 9.71875 13.0133011659852  9.63830116598522 13.09375  9.5390625 13.09375  L 8.4609375 13.09375  C 8.36169883401478 13.09375  8.28125 13.0133011659852  8.28125 12.9140625  L 8.28125 7.5234375  Z " fill-rule="nonzero" fill="rgb(255,72,64)" stroke="none" transform="matrix(1 0 0 1 1960 121 )" />
  </g>
</svg>