<?xml version="1.0" encoding="utf-8"?>
<svg version="1.1" xmlns:xlink="http://www.w3.org/1999/xlink" width="6px" height="4px" xmlns="http://www.w3.org/2000/svg">
  <g transform="matrix(1 0 0 1 -577 -723 )">
    <path d="M 0.49714591796875 1.02785508203125  C 0.0963736601562495 1.27680231640625  -0.0266309414062498 1.80334931640625  0.222316265624999 2.2039537109375  C 0.528820453124998 2.6974271328125  1.3700980625 3.5325768984375  2.57817898046875 3.5325768984375  C 3.78016002734375 3.5325768984375  4.63170669140625 2.7036948671875  4.94545795703125 2.21397090234375  C 5.1998335 1.816696265625  5.08404800390625 1.28847038671875  4.6869132578125 1.03409487109375  C 4.2890789765625 0.7795794375  3.7614127421875 0.89550482421875  3.5070372265625 1.2926395703125  C 3.50370749609375 1.29806787890625  3.14118526171875 1.82447498828125  2.57820698046875 1.82447498828125  C 2.03109392578125 1.82447498828125  1.6910684609375 1.3287910703125  1.66826391015625 1.2947381484375  C 1.41763782421875 0.900373515625001  0.89498019921875 0.78055875390625  0.49714591796875 1.02785508203125  Z " fill-rule="nonzero" fill="#00ffff" stroke="none" transform="matrix(1 0 0 1 577 723 )" />
  </g>
</svg>