<?xml version="1.0" encoding="utf-8"?>
<svg version="1.1" xmlns:xlink="http://www.w3.org/1999/xlink" width="25px" height="24px" xmlns="http://www.w3.org/2000/svg">
  <g transform="matrix(1 0 0 1 -567 -722 )">
    <path d="M 24.7400212539062 10.9877163398438  C 24.7400212539062 6.9147138125  22.7226450429688 3.12029044921875  19.3434041757812 0.83751416015625  C 18.9525091914063 0.573541125  18.4215132265625 0.676259480468751  18.157680109375 1.06715446484375  C 17.8935671835937 1.45790953125  17.9964254296875 1.9889055234375  18.3873204140625 2.25287853125  C 21.2955846015625 4.217594453125  23.0319193710938 7.4829525390625  23.0319193710938 10.9877163125  C 23.0319193710938 16.5078696367187  18.7624620625 21.0467003164062  13.3526658984375 21.4832603203125  L 13.3526658984375 14.7157127382812  C 14.7126278398438 14.3402073359375  15.7154959101562 13.0951914648438  15.7154959101562 11.6174293671875  C 15.7154959101562 9.8435720546875  14.2724862695312 8.4005624140625  12.4986289570313 8.4005624140625  C 10.7247716445313 8.4005624140625  9.2816220859375 9.8435720546875  9.2816220859375 11.6174293671875  C 9.2816220859375 13.0952194375  10.2845740742188 14.3402073359375  11.6445919882812 14.7157127382812  L 11.6445919882812 21.4832603476562  C 6.234795796875 21.04670034375  1.96533848828125 16.5078696640625  1.96533848828125 10.9877163398438  C 1.96533848828125 7.4829805390625  3.70164528515625 4.21759448046875  6.6097975546875 2.25287855859375  C 7.0006925390625 1.9889055234375  7.10355078515625 1.45790955859375  6.839437859375 1.0671544921875  C 6.57546482421875 0.6762595078125  6.044468859375 0.573541152343751  5.65371379296875 0.837514187500001  C 2.2746407890625 3.12029044921875  0.25723660546875 6.9147138125  0.25723660546875 10.9877163398438  C 0.25723660546875 17.737551953125  5.74865342578125 23.2289687734375  12.4986289296875 23.2289687734375  C 19.2486044335938 23.2289687734375  24.7400212539062 17.737551953125  24.7400212539062 10.9877163398438  Z M 12.4986289296875 13.1263063554687  C 11.6666689765625 13.1263063554687  10.98972396875 12.4493613203125  10.98972396875 11.6174013945312  C 10.98972396875 10.78544146875  11.6666690039063 10.1086363242188  12.4986289296875 10.1086363242188  C 13.3305888554688 10.1086363242188  14.007394 10.7854414414063  14.007394 11.6174013945312  C 14.007394 12.4493613203125  13.3305888828125 13.1263063554687  12.4986289296875 13.1263063554687  Z " fill-rule="nonzero" fill="#00ffff" stroke="none" transform="matrix(1 0 0 1 567 722 )" />
  </g>
</svg>