<?xml version="1.0" encoding="utf-8"?>
<svg version="1.1" xmlns:xlink="http://www.w3.org/1999/xlink" width="6px" height="13px" xmlns="http://www.w3.org/2000/svg">
  <g transform="matrix(1 0 0 1 -572 -727 )">
    <path d="M 0.381542308593751 6.5768289296875  C 0.381542308593751 9.0580746328125  1.85821314453125 11.2859241367188  4.14359165625 12.2524168710938  C 4.252158046875 12.29827778125  4.36489362109375 12.3201029882812  4.4758103984375 12.3201029882812  C 4.80872867578125 12.3201029882812  5.1249702734375 12.124235796875  5.26286078515625 11.7984246796875  C 5.4465002890625 11.3640191992187  5.24327407421875 10.8629069726562  4.80886859375 10.6791555507812  C 3.15706451171875 9.9805252265625  2.08964421875 8.37027298046875  2.08964421875 6.5768289296875  C 2.08964421875 4.85621949609375  3.0970172265625 3.2725212578125  4.656092171875 2.542468234375  C 5.083250546875 2.342431859375  5.26730977734375 1.833960609375  5.06727340234375 1.40680220703125  C 4.8675168359375 0.979783722656251  4.35890566796875 0.795584601562501  3.931607375 0.995620976562499  C 1.7750815 2.0054842890625  0.381542308593751 4.1963708671875  0.381542308593751 6.5768289296875  Z " fill-rule="nonzero" fill="#00ffff" stroke="none" transform="matrix(1 0 0 1 572 727 )" />
  </g>
</svg>