<?xml version="1.0" encoding="utf-8"?>
<svg version="1.1" xmlns:xlink="http://www.w3.org/1999/xlink" width="6px" height="13px" xmlns="http://www.w3.org/2000/svg">
  <g transform="matrix(1 0 0 1 -581 -727 )">
    <path d="M 3.90761361328125 6.57682890234375  C 3.907613640625 8.370272953125  2.84019334765625 9.98052519921875  1.188389265625 10.6791555234375  C 0.753983785156247 10.8629349179688  0.550757570312499 11.364047171875  0.734397074218748 11.7984246523438  C 0.872287585937499 12.1242637421875  1.18852918359375 12.3201029609375  1.5214474609375 12.3201029609375  C 1.632364265625 12.3201029609375  1.7450998125 12.2982777539063  1.853666203125 12.25241684375  C 4.13904471484375 11.2858961367188  5.6157155234375 9.05807460546875  5.6157155234375 6.57682890234375  C 5.6157155234375 4.19637083984375  4.22217633203125 2.0056241796875  2.06551056640625 0.995620949218754  C 1.63793246484374 0.795024957031254  1.12971305078125 0.979643777343753  0.929844539062497 1.4068021796875  C 0.729808164062497 1.8339605546875  0.9138673671875 2.3424598046875  1.34102576953125 2.54246820703125  C 2.90024063281249 3.2726611484375  3.90761361328125 4.85621949609375  3.90761361328125 6.57682890234375  Z " fill-rule="nonzero" fill="#00ffff" stroke="none" transform="matrix(1 0 0 1 581 727 )" />
  </g>
</svg>