<?xml version="1.0" encoding="utf-8"?>
<svg version="1.1" xmlns:xlink="http://www.w3.org/1999/xlink" width="18px" height="18px" xmlns="http://www.w3.org/2000/svg">
  <g transform="matrix(1 0 0 1 -55 -1155 )">
    <path d="M 5.95824746484375 0  L 2.5484906953125 0  C 1.14868320117187 0  0.000178013671874977 1.14859209375  0.000178013671874977 2.53044198632813  L 0.000178013671874977 5.94012921679688  C 0.000178013671874977 7.32201387890625  1.14868320117187 8.4167331328125  2.53053309375 8.4167331328125  L 8.41685900976562 8.4167331328125  L 8.4168589921875 2.53044198632813  C 8.4168589921875 1.14859209375  7.32213973828125 0  5.95824746484375 0  Z M 7.17854834179687 7.17842248242188  L 2.53053309375 7.17842248242188  C 1.84861302539063 7.17842248242188  1.25634197460937 6.62210143945313  1.25634197460937 5.94012921679687  L 1.25634197460937 2.53044198632812  C 1.25634197460937 1.84843501171875  1.84861302539063 1.2562508671875  2.53053309375 1.2562508671875  L 5.94030724804688 1.2562508671875  C 6.62222731640625 1.2562508671875  7.17856574414063 1.83052952929687  7.17856574414063 2.53044198632812  L 7.1785657265625 7.17842248242188  Z M 15.5414781738281 0  L 12.1317040195313 0  C 10.7498541269531 0  9.60120987890625 1.14859209375  9.60120987890625 2.53044198632813  L 9.60120987890625 8.41671574804688  L 15.5414607890625 8.41671574804688  C 16.9231368339844 8.41671574804688  17.9998984863281 7.32201387890625  17.9998984863281 5.94011183203125  L 17.9998984863281 2.5304246015625  C 17.9998984863281 1.14859209375  16.9053356777344 0  15.5414781738281 0  Z M 16.7439257402344 5.94012921679687  C 16.7439257402344 6.62210143945313  16.2233634726562 7.17842248242188  15.5233119550781 7.17842248242188  L 10.8216498339844 7.17842248242188  L 10.8216498339844 2.51250176953125  C 10.8216498339844 1.830529546875  11.4317394257812 1.23831065039062  12.1137985722656 1.23831065039062  L 15.5232945878906 1.23831065039062  C 16.2055275644531 1.23831065039062  16.7439083730469 1.8125893125  16.7439083730469 2.51250176953125  L 16.7439083554688 5.94012921679687  Z M 0.000178013671874977 12.1135336347656  L 0.000178013671874977 15.523377328125  C 0.000178013671874977 16.905140296875  1.14868320117187 17.9999812441406  2.53053309375 17.9999812441406  L 5.94030724804688 17.9999812441406  C 7.322157140625 17.9999812441406  8.39891877539062 16.905140296875  8.39891877539062 15.523377328125  L 8.3989187578125 9.58331761523437  L 2.53053309375 9.58331761523437  C 1.14868320117187 9.58331761523437  0.000178013671874977 10.7317880332031  0.000178013671874977 12.1135336347656  Z M 7.17854834179687 15.5233946953125  C 7.17854834179687 16.2052799941406  6.640167515625 16.7436608027344  5.94028984570313 16.7436608027344  L 2.53053309375 16.7436608027344  C 1.84861302539063 16.7436608027344  1.25634197460937 16.2052799765625  1.25634197460937 15.5233946953125  L 1.25634197460937 12.1135336347656  C 1.25634197460937 11.4315614121094  1.84861302539063 10.8214718203125  2.53053309375 10.8214718203125  L 7.178548359375 10.8214718203125  L 7.17854834179687 15.5233946953125  Z M 15.5414781738281 9.58331761523437  L 9.58332179882813 9.58331761523437  L 9.58332179882813 15.5233946953125  C 9.58332179882813 16.9051576640625  10.731879140625 17.9999986113281  12.1138159394531 17.9999986113281  L 15.5233119550781 17.9999986113281  C 16.9053356953125 17.9999986113281  17.9820973300781 16.9051576640625  17.9820973300781 15.5233946953125  L 17.9820973125 12.1135336347656  C 17.9998984863281 10.7317880332031  16.9053356777344 9.58331761523437  15.5414781738281 9.58331761523437  Z M 16.7617268964844 15.5233947128906  L 16.7439257402344 15.5233946953125  C 16.7439257402344 16.2052799941406  16.2233634726562 16.7436608027344  15.5233119550781 16.7436608027344  L 12.1137985546875 16.7436608027344  C 11.4317394257812 16.7436608027344  10.8216498164063 16.2052799765625  10.8216498164063 15.5233946953125  L 10.8216498339844 10.8214892050781  L 15.5414607890625 10.8214892050781  C 16.2233460878906 10.8214892050781  16.7617268964844 11.4137602558594  16.7617268964844 12.1135510195312  L 16.7617268964844 15.5233947128906  Z " fill-rule="nonzero" fill="#00ffff" stroke="none" transform="matrix(1 0 0 1 55 1155 )" />
  </g>
</svg>