<?xml version="1.0" encoding="utf-8"?>
<svg version="1.1" xmlns:xlink="http://www.w3.org/1999/xlink" width="18px" height="17px" xmlns="http://www.w3.org/2000/svg">
  <g transform="matrix(1 0 0 1 -59 -721 )">
    <path d="M 0.8251953125 16.54296875  L 0.8251953125 9.19951171875  L 2.2412109375 9.19951171875  L 2.2412109375 16.54296875  L 0.8251953125 16.54296875  Z M 5.82939453125 16.54296875  L 5.82939453125 6.98486328125  L 7.24541015625 6.98486328125  L 7.24541015625 16.54296875  L 5.82939453125 16.54296875  Z M 10.83076171875 16.54296875  L 10.83076171875 9.19951171875  L 12.24677734375 9.19951171875  L 12.24677734375 16.54296875  L 10.83076171875 16.54296875  Z M 15.8349609375 16.54296875  L 15.8349609375 5.6396484375  L 17 5.6396484375  L 17 16.54296875  L 15.8349609375 16.54296875  Z M 6.40712890625 3.34853515625  L 0.99228515625 7.23125  L 0.1455078125 6.087109375  L 6.34482421875 1.64365234375  L 11.60673828125 4.8806640625  L 16.78369140625 0.6212890625  L 17.7041015625 1.7087890625  L 11.728515625 6.6251953125  L 6.40712890625 3.34853515625  Z " fill-rule="nonzero" fill="#00ffff" stroke="none" transform="matrix(1 0 0 1 59 721 )" />
  </g>
</svg>