<?xml version="1.0" standalone="no"?><!DOCTYPE svg PUBLIC "-//W3C//DTD SVG 1.1//EN" "http://www.w3.org/Graphics/SVG/1.1/DTD/svg11.dtd"><svg t="1607064491164" class="icon" viewBox="0 0 1024 1024" version="1.1" xmlns="http://www.w3.org/2000/svg" p-id="3354" xmlns:xlink="http://www.w3.org/1999/xlink" width="32" height="32"><defs><style type="text/css"></style></defs><path d="M511.999817 511.999817m-511.999817 0a511.999817 511.999817 0 1 0 1023.999634 0 511.999817 511.999817 0 1 0-1023.999634 0Z" fill="#E6F0FF" p-id="3355"></path><path d="M593.480931 182.125649H475.940401a95.08568 95.08568 0 0 0-80.457114 44.617127A96.402251 96.402251 0 0 0 299.885607 322.925599v63.926834A96.475394 96.475394 0 0 0 396.06843 482.742685h236.39763a95.524537 95.524537 0 0 0 95.08568-95.085681v-71.241117A134.655952 134.655952 0 0 0 593.480931 182.125649z" fill="#9DC0FC" p-id="3356"></path><path d="M511.999817 1023.999634a509.878675 509.878675 0 0 0 337.554165-127.195383l-6.948569-43.885698a138.020522 138.020522 0 0 0-137.654808-137.508523H322.633028a138.020522 138.020522 0 0 0-137.581666 137.581665l-7.314283 46.518841A509.805532 509.805532 0 0 0 511.999817 1023.999634z" fill="#769AFF" p-id="3357"></path><path d="M519.8261 811.00771h-11.995424c-46.006841 0-95.670823-37.668558-95.670823-83.675398L424.22842 571.903796a83.96797 83.96797 0 0 1 83.602256-83.675399h11.922281a83.96797 83.96797 0 0 1 83.748542 83.675399l11.922281 155.428516c0 46.079984-49.590839 83.675399-95.59768 83.675398z" fill="#F8FCFF" p-id="3358"></path><path d="M609.572354 650.971196l-6.070855-79.140543a83.96797 83.96797 0 0 0-83.675399-83.602256h-11.995424A83.96797 83.96797 0 0 0 424.22842 571.903796l-12.068567 155.428516a68.534833 68.534833 0 0 0 8.703997 32.914274 160.914228 160.914228 0 0 0 18.139422 1.023999h17.846851A161.499371 161.499371 0 0 0 609.572354 650.971196z" fill="#DCE6EA" p-id="3359"></path><path d="M387.657004 336.457023h252.123339a43.885699 43.885699 0 0 1 43.885699 43.885698v153.599945a160.914228 160.914228 0 0 1-160.914229 160.914229H504.685534a160.914228 160.914228 0 0 1-160.914228-160.914229V380.342721a43.885699 43.885699 0 0 1 43.885698-43.885698z" fill="#F8FCFF" p-id="3360"></path></svg>